<?xml version="1.0" encoding="utf-8"?>
<!-- Generator: Adobe Illustrator 24.2.2, SVG Export Plug-In . SVG Version: 6.00 Build 0)  -->
<svg version="1.1" id="Layer_1" xmlns="http://www.w3.org/2000/svg" xmlns:xlink="http://www.w3.org/1999/xlink" x="0px" y="0px"
	 viewBox="0 0 357.4 370.6" style="enable-background:new 0 0 357.4 370.6;" xml:space="preserve">
<style type="text/css">
	.st0{fill:#0068A8;}
	.st1{fill:#03C2E0;}
	.st2{opacity:0.98;fill:#8F0000;enable-background:new    ;}
	.st3{fill-rule:evenodd;clip-rule:evenodd;fill-opacity:0.199;}
	.st4{opacity:0.98;fill:#FFFFFF;enable-background:new    ;}
</style>
<path class="st0" d="M179.2,315.9c-72.7,0-131.9-59.2-131.9-131.9S106.5,52.1,179.2,52.1c35.6,0,68.4,14.3,92.7,37.8L304,57.1
	C271.9,25.7,227.7,6.5,179.2,6.5C80.8,6.5,0.9,86.3,0.9,184.7S80.8,363,179.2,363c49.2,0,93.4-20,125.5-52l-32.1-32.8
	C248.3,301.7,215.5,315.9,179.2,315.9L179.2,315.9z"/>
<path class="st1" d="M357.4,184c0-49.9-20.7-94.8-53.5-127.6l-32.1,32.8c24.2,24.2,39.9,57.8,39.9,94.8c0,36.4-15,69.9-39.2,94.1
	l32.1,32.8C337.5,278.1,357.4,233.2,357.4,184L357.4,184z"/>
<g transform="translate(0 -405.36)">
	<g transform="translate(.000014172 .000022107)">
		<path class="st2" d="M179.2,489.6l90.8,49.8v99.3l-90.8,49.7l-90.8-49.7l0-99.4L179.2,489.6z"/>
		<path class="st3" d="M178.7,678.3l-9.1-4.5l-71.1-73.5l1.3-3.8h35l6.4-20.1l5.6,7.6l18.8-20l15.5-4l0.7,10.3l10.9,1.1l10.9,0.2
			l28.3,0.7l4.8-21.6l24.2,26.9l-0.7,20l-37.3,0l-0.6,18.6l39,3.9l0.5,13.1L178.7,678.3z"/>
		<path class="st4" d="M95.5,600.7v33.2c0,0.5,0.3,1.1,0.8,1.3l82.1,44.9c0.5,0.3,1.1,0.3,1.6,0l82-44.9c0.5-0.3,0.9-0.8,0.9-1.3
			v-10.9v-6.8v-15.5v-6.8v-49.6c0-0.5-0.4-1.1-0.9-1.3l-82-44.8c-0.2-0.1-0.5-0.2-0.8-0.2c-0.3,0-0.6,0.1-0.8,0.2l-82.1,44.8
			c-0.5,0.3-0.8,0.8-0.8,1.3v27.2v6.4v16V600.7z M179.2,501.2l80.4,44v48.7h-32.2c-5.7,0-10.6,4.5-10.6,9.9v1.3
			c-19.4-0.1-25.1-4.9-32.3-10.9c-6-5-13.5-10.4-28.6-12.7c2.8-2.7,4.5-5.7,6-8.3c1.6-2.8,3.1-5,5.4-6.5c1.8-1.2,4.9-1.9,9-2.1v1.2
			c0,5.4,4.4,9.8,10.1,9.8h41.3c5.7,0,10.8-4.4,10.8-9.8v-9.6c0-5.4-5.1-9.8-10.8-9.8l-41.3,0c-5.7,0-10.1,4.4-10.1,9.8v1.8
			c-5.3,0.2-9.9,1.2-13,3.2c-3.8,2.5-5.9,5.8-7.6,8.8c-1.7,2.9-3.1,5.5-5.1,7.2c-1.7,1.5-4.2,2.5-8.1,3c-0.5-5-5.1-8.6-10.4-8.6
			H98.8v-26.5L179.2,501.2z M186.5,553.2h41.3c1.9,0,3.3,1.2,3.3,3v9.6c0,1.8-1.4,3.1-3.4,3.1h-41.3c-1.9,0-3.5-1.2-3.5-3.1v-9.6
			C182.9,554.4,184.5,553.2,186.5,553.2L186.5,553.2z M98.8,577.8h33.3c1.9,0,3.4,1.5,3.4,3.3v9.6c0,1.8-1.4,3-3.4,3H98.8
			L98.8,577.8z M142.7,587.1c23.2,0.3,29.7,5.9,37.1,12.1c7.2,5.9,16,12.2,37,12.4v1.7c0,5.4,4.9,9.7,10.6,9.7h32.2V633l-80.4,44
			l-80.4-44v-32.5h33.3c5.7,0,10.6-4.4,10.6-9.8L142.7,587.1z M227.4,600.5h32.2v15.7h-32.2c-1.9,0-3.5-1.2-3.5-3.1v-9.4
			C223.9,601.9,225.5,600.5,227.4,600.5L227.4,600.5z"/>
	</g>
</g>
</svg>
