<?xml version="1.0" encoding="UTF-8" standalone="no"?>
<svg
   xmlns:dc="http://purl.org/dc/elements/1.1/"
   xmlns:cc="http://creativecommons.org/ns#"
   xmlns:rdf="http://www.w3.org/1999/02/22-rdf-syntax-ns#"
   xmlns:svg="http://www.w3.org/2000/svg"
   xmlns="http://www.w3.org/2000/svg"
   xmlns:sodipodi="http://sodipodi.sourceforge.net/DTD/sodipodi-0.dtd"
   xmlns:inkscape="http://www.inkscape.org/namespaces/inkscape"
   inkscape:version="1.0 (4035a4fb49, 2020-05-01)"
   height="420"
   width="400"
   sodipodi:docname="alexaconnect.svg"
   xml:space="preserve"
   viewBox="0 0 400.00001 419.99999"
   y="0px"
   x="0px"
   id="Layer_1"
   version="1.1"><metadata
   id="metadata23"><rdf:RDF><cc:Work
       rdf:about=""><dc:format>image/svg+xml</dc:format><dc:type
         rdf:resource="http://purl.org/dc/dcmitype/StillImage" /><dc:title></dc:title></cc:Work></rdf:RDF></metadata><defs
   id="defs21" /><sodipodi:namedview
   inkscape:current-layer="Layer_1"
   inkscape:window-maximized="1"
   inkscape:window-y="-8"
   inkscape:window-x="1912"
   inkscape:cy="236.33874"
   inkscape:cx="-21.981136"
   inkscape:zoom="1.146789"
   showgrid="false"
   id="namedview19"
   inkscape:window-height="1017"
   inkscape:window-width="1920"
   inkscape:pageshadow="2"
   inkscape:pageopacity="0"
   guidetolerance="10"
   gridtolerance="10"
   objecttolerance="10"
   borderopacity="1"
   bordercolor="#666666"
   pagecolor="#ffffff" />
<style
   id="style2"
   type="text/css">
	.st0{fill:#0068A8;}
	.st1{fill:#03C2E0;}
	.st2{opacity:0.98;fill:#8F0000;enable-background:new    ;}
	.st3{fill-rule:evenodd;clip-rule:evenodd;fill-opacity:0.199;}
	.st4{opacity:0.98;fill:#FFFFFF;enable-background:new    ;}
</style>
<path
   id="path4"
   d="m 201,342.06 c -72.7,0 -131.9,-59.2 -131.9,-131.9 0,-72.7 59.2,-131.9 131.9,-131.9 35.6,0 68.4,14.3 92.7,37.8 l 32.1,-32.8 C 293.7,51.86 249.5,32.66 201,32.66 c -98.4,0 -178.3,79.8 -178.3,178.2 0,98.4 79.9,178.3 178.3,178.3 49.2,0 93.4,-20 125.5,-52 l -32.1,-32.8 c -24.3,23.5 -57.1,37.7 -93.4,37.7 z"
   class="st0" />
<path
   id="path6"
   d="m 379.2,210.16 c 0,-49.9 -20.7,-94.8 -53.5,-127.6 l -32.1,32.8 c 24.2,24.2 39.9,57.8 39.9,94.8 0,36.4 -15,69.9 -39.2,94.1 l 32.1,32.8 c 32.9,-32.8 52.8,-77.7 52.8,-126.9 z"
   class="st1" />
<g
   id="g16"
   transform="translate(21.8,-379.2)">
	<g
   id="g14"
   transform="translate(1.4172e-5,2.2107e-5)">
		<path
   id="path8"
   d="m 179.2,489.6 90.8,49.8 v 99.3 l -90.8,49.7 -90.8,-49.7 v -99.4 z"
   class="st2" />
		<path
   id="path10"
   d="m 178.7,678.3 -9.1,-4.5 -71.1,-73.5 1.3,-3.8 h 35 l 6.4,-20.1 5.6,7.6 18.8,-20 15.5,-4 0.7,10.3 10.9,1.1 10.9,0.2 28.3,0.7 4.8,-21.6 24.2,26.9 -0.7,20 h -37.3 l -0.6,18.6 39,3.9 0.5,13.1 z"
   class="st3" />
		<path
   id="path12"
   d="m 95.5,600.7 v 33.2 c 0,0.5 0.3,1.1 0.8,1.3 l 82.1,44.9 c 0.5,0.3 1.1,0.3 1.6,0 l 82,-44.9 c 0.5,-0.3 0.9,-0.8 0.9,-1.3 v -10.9 -6.8 -15.5 -6.8 -49.6 c 0,-0.5 -0.4,-1.1 -0.9,-1.3 l -82,-44.8 c -0.2,-0.1 -0.5,-0.2 -0.8,-0.2 -0.3,0 -0.6,0.1 -0.8,0.2 L 96.3,543 c -0.5,0.3 -0.8,0.8 -0.8,1.3 v 27.2 6.4 16 z m 83.7,-99.5 80.4,44 v 48.7 h -32.2 c -5.7,0 -10.6,4.5 -10.6,9.9 v 1.3 c -19.4,-0.1 -25.1,-4.9 -32.3,-10.9 -6,-5 -13.5,-10.4 -28.6,-12.7 2.8,-2.7 4.5,-5.7 6,-8.3 1.6,-2.8 3.1,-5 5.4,-6.5 1.8,-1.2 4.9,-1.9 9,-2.1 v 1.2 c 0,5.4 4.4,9.8 10.1,9.8 h 41.3 c 5.7,0 10.8,-4.4 10.8,-9.8 v -9.6 c 0,-5.4 -5.1,-9.8 -10.8,-9.8 h -41.3 c -5.7,0 -10.1,4.4 -10.1,9.8 v 1.8 c -5.3,0.2 -9.9,1.2 -13,3.2 -3.8,2.5 -5.9,5.8 -7.6,8.8 -1.7,2.9 -3.1,5.5 -5.1,7.2 -1.7,1.5 -4.2,2.5 -8.1,3 -0.5,-5 -5.1,-8.6 -10.4,-8.6 H 98.8 v -26.5 z m 7.3,52 h 41.3 c 1.9,0 3.3,1.2 3.3,3 v 9.6 c 0,1.8 -1.4,3.1 -3.4,3.1 h -41.3 c -1.9,0 -3.5,-1.2 -3.5,-3.1 v -9.6 c 0,-1.8 1.6,-3 3.6,-3 z m -87.7,24.6 h 33.3 c 1.9,0 3.4,1.5 3.4,3.3 v 9.6 c 0,1.8 -1.4,3 -3.4,3 H 98.8 Z m 43.9,9.3 c 23.2,0.3 29.7,5.9 37.1,12.1 7.2,5.9 16,12.2 37,12.4 v 1.7 c 0,5.4 4.9,9.7 10.6,9.7 h 32.2 v 10 l -80.4,44 -80.4,-44 v -32.5 h 33.3 c 5.7,0 10.6,-4.4 10.6,-9.8 z m 84.7,13.4 h 32.2 v 15.7 h -32.2 c -1.9,0 -3.5,-1.2 -3.5,-3.1 v -9.4 c 0,-1.8 1.6,-3.2 3.5,-3.2 z"
   class="st4" />
	</g>
</g>
</svg>
